<mxfile host="app.diagrams.net" modified="2021-10-29T04:58:17.860Z" agent="5.0 (Macintosh; Intel Mac OS X 10_15_7) AppleWebKit/537.36 (KHTML, like Gecko) Chrome/89.0.4389.114 Safari/537.36" etag="ybnVhE9pMcyI96b696rn" version="15.6.2" type="github">
  <diagram id="jGf0kjj8QAYspMm0BPY0" name="Page-1">
    <mxGraphModel dx="862" dy="743" grid="1" gridSize="10" guides="1" tooltips="1" connect="1" arrows="1" fold="1" page="1" pageScale="1" pageWidth="827" pageHeight="1169" math="0" shadow="0">
      <root>
        <mxCell id="0" />
        <mxCell id="1" parent="0" />
        <mxCell id="l1ZClt1DXuYaa-gGNhbf-6" value="Cloud SMTP Serv&lt;span style=&quot;background-color: rgb(248 , 249 , 250)&quot;&gt;i&lt;/span&gt;ce" style="aspect=fixed;perimeter=ellipsePerimeter;html=1;align=center;shadow=0;dashed=0;spacingTop=3;image;image=img/lib/active_directory/web_server.svg;" vertex="1" parent="1">
          <mxGeometry x="415" y="210" width="64" height="80" as="geometry" />
        </mxCell>
        <mxCell id="l1ZClt1DXuYaa-gGNhbf-15" style="edgeStyle=orthogonalEdgeStyle;rounded=0;orthogonalLoop=1;jettySize=auto;html=1;exitX=0;exitY=0.5;exitDx=0;exitDy=0;entryX=1;entryY=0.5;entryDx=0;entryDy=0;startArrow=classic;startFill=1;" edge="1" parent="1" source="l1ZClt1DXuYaa-gGNhbf-9" target="l1ZClt1DXuYaa-gGNhbf-6">
          <mxGeometry relative="1" as="geometry" />
        </mxCell>
        <mxCell id="l1ZClt1DXuYaa-gGNhbf-9" value="Node" style="image;html=1;image=img/lib/clip_art/networking/Print_Server_128x128.png" vertex="1" parent="1">
          <mxGeometry x="563" y="135" width="57" height="45" as="geometry" />
        </mxCell>
        <mxCell id="l1ZClt1DXuYaa-gGNhbf-16" style="edgeStyle=orthogonalEdgeStyle;rounded=0;orthogonalLoop=1;jettySize=auto;html=1;exitX=0;exitY=0.5;exitDx=0;exitDy=0;startArrow=classic;startFill=1;" edge="1" parent="1" source="l1ZClt1DXuYaa-gGNhbf-10" target="l1ZClt1DXuYaa-gGNhbf-6">
          <mxGeometry relative="1" as="geometry" />
        </mxCell>
        <mxCell id="l1ZClt1DXuYaa-gGNhbf-10" value="Node" style="image;html=1;image=img/lib/clip_art/networking/Print_Server_128x128.png" vertex="1" parent="1">
          <mxGeometry x="563" y="232" width="57" height="35" as="geometry" />
        </mxCell>
        <mxCell id="l1ZClt1DXuYaa-gGNhbf-17" style="edgeStyle=orthogonalEdgeStyle;rounded=0;orthogonalLoop=1;jettySize=auto;html=1;exitX=0;exitY=0.5;exitDx=0;exitDy=0;entryX=1;entryY=0.5;entryDx=0;entryDy=0;startArrow=classic;startFill=1;" edge="1" parent="1" source="l1ZClt1DXuYaa-gGNhbf-11" target="l1ZClt1DXuYaa-gGNhbf-6">
          <mxGeometry relative="1" as="geometry">
            <mxPoint x="495" y="265" as="targetPoint" />
          </mxGeometry>
        </mxCell>
        <mxCell id="l1ZClt1DXuYaa-gGNhbf-42" style="edgeStyle=orthogonalEdgeStyle;rounded=0;orthogonalLoop=1;jettySize=auto;html=1;exitX=0;exitY=0.5;exitDx=0;exitDy=0;entryX=0.625;entryY=0.2;entryDx=0;entryDy=0;entryPerimeter=0;startArrow=classic;startFill=1;strokeWidth=1;" edge="1" parent="1" source="l1ZClt1DXuYaa-gGNhbf-11" target="l1ZClt1DXuYaa-gGNhbf-31">
          <mxGeometry relative="1" as="geometry" />
        </mxCell>
        <mxCell id="l1ZClt1DXuYaa-gGNhbf-11" value="Node" style="image;html=1;image=img/lib/clip_art/networking/Print_Server_128x128.png" vertex="1" parent="1">
          <mxGeometry x="563" y="325" width="67" height="35" as="geometry" />
        </mxCell>
        <mxCell id="l1ZClt1DXuYaa-gGNhbf-22" style="edgeStyle=orthogonalEdgeStyle;rounded=0;orthogonalLoop=1;jettySize=auto;html=1;exitX=1;exitY=0.5;exitDx=0;exitDy=0;entryX=0.07;entryY=0.4;entryDx=0;entryDy=0;entryPerimeter=0;startArrow=classic;startFill=1;" edge="1" parent="1" source="l1ZClt1DXuYaa-gGNhbf-12" target="l1ZClt1DXuYaa-gGNhbf-19">
          <mxGeometry relative="1" as="geometry">
            <mxPoint x="210" y="240" as="targetPoint" />
          </mxGeometry>
        </mxCell>
        <mxCell id="l1ZClt1DXuYaa-gGNhbf-12" value="@icloud.com&lt;span style=&quot;color: rgba(0 , 0 , 0 , 0) ; font-family: monospace ; font-size: 0px ; background-color: rgb(248 , 249 , 250)&quot;&gt;%3CmxGraphModel%3E%3Croot%3E%3CmxCell%20id%3D%220%22%2F%3E%3CmxCell%20id%3D%221%22%20parent%3D%220%22%2F%3E%3CmxCell%20id%3D%222%22%20value%3D%22Node%22%20style%3D%22image%3Bhtml%3D1%3Bimage%3Dimg%2Flib%2Fclip_art%2Fnetworking%2FPrint_Server_128x128.png%22%20vertex%3D%221%22%20parent%3D%221%22%3E%3CmxGeometry%20x%3D%22520%22%20y%3D%22390%22%20width%3D%2280%22%20height%3D%2280%22%20as%3D%22geometry%22%2F%3E%3C%2FmxCell%3E%3C%2Froot%3E%3C%2FmxGraphModel%3E&lt;/span&gt;" style="aspect=fixed;perimeter=ellipsePerimeter;html=1;align=center;shadow=0;dashed=0;spacingTop=3;image;image=img/lib/active_directory/web_server.svg;" vertex="1" parent="1">
          <mxGeometry x="80" y="130" width="64" height="80" as="geometry" />
        </mxCell>
        <mxCell id="l1ZClt1DXuYaa-gGNhbf-24" style="edgeStyle=orthogonalEdgeStyle;rounded=0;orthogonalLoop=1;jettySize=auto;html=1;exitX=0.875;exitY=0.5;exitDx=0;exitDy=0;exitPerimeter=0;entryX=0;entryY=0.5;entryDx=0;entryDy=0;" edge="1" parent="1" source="l1ZClt1DXuYaa-gGNhbf-19" target="l1ZClt1DXuYaa-gGNhbf-6">
          <mxGeometry relative="1" as="geometry" />
        </mxCell>
        <mxCell id="l1ZClt1DXuYaa-gGNhbf-19" value="" style="ellipse;shape=cloud;whiteSpace=wrap;html=1;" vertex="1" parent="1">
          <mxGeometry x="212" y="208.5" width="133.57" height="82.5" as="geometry" />
        </mxCell>
        <mxCell id="l1ZClt1DXuYaa-gGNhbf-23" style="edgeStyle=orthogonalEdgeStyle;rounded=0;orthogonalLoop=1;jettySize=auto;html=1;exitX=1;exitY=0.5;exitDx=0;exitDy=0;entryX=0.07;entryY=0.4;entryDx=0;entryDy=0;entryPerimeter=0;startArrow=classic;startFill=1;" edge="1" parent="1" source="l1ZClt1DXuYaa-gGNhbf-21" target="l1ZClt1DXuYaa-gGNhbf-19">
          <mxGeometry relative="1" as="geometry" />
        </mxCell>
        <mxCell id="l1ZClt1DXuYaa-gGNhbf-21" value="@gmail.com" style="aspect=fixed;perimeter=ellipsePerimeter;html=1;align=center;shadow=0;dashed=0;spacingTop=3;image;image=img/lib/active_directory/web_server.svg;" vertex="1" parent="1">
          <mxGeometry x="80" y="285" width="64" height="80" as="geometry" />
        </mxCell>
        <mxCell id="l1ZClt1DXuYaa-gGNhbf-27" style="edgeStyle=orthogonalEdgeStyle;rounded=0;orthogonalLoop=1;jettySize=auto;html=1;exitX=0.5;exitY=1;exitDx=0;exitDy=0;entryX=0.5;entryY=0;entryDx=0;entryDy=0;startArrow=none;startFill=0;dashed=1;" edge="1" parent="1" source="l1ZClt1DXuYaa-gGNhbf-26" target="l1ZClt1DXuYaa-gGNhbf-6">
          <mxGeometry relative="1" as="geometry">
            <mxPoint x="447" y="120" as="sourcePoint" />
          </mxGeometry>
        </mxCell>
        <mxCell id="l1ZClt1DXuYaa-gGNhbf-26" value="&amp;nbsp;- short term data storage only - until it is transferred to the nodes&lt;br&gt;&amp;nbsp;- no user keys&lt;br&gt;&amp;nbsp;- always available&amp;nbsp;" style="rounded=1;whiteSpace=wrap;html=1;dashed=1;" vertex="1" parent="1">
          <mxGeometry x="190" y="65" width="260" height="70" as="geometry" />
        </mxCell>
        <mxCell id="l1ZClt1DXuYaa-gGNhbf-28" value="Private Email Overview" style="text;html=1;strokeColor=none;fillColor=none;align=center;verticalAlign=middle;whiteSpace=wrap;rounded=0;dashed=1;fontSize=21;fontStyle=1" vertex="1" parent="1">
          <mxGeometry x="330" y="10" width="270" height="30" as="geometry" />
        </mxCell>
        <mxCell id="l1ZClt1DXuYaa-gGNhbf-30" value="" style="verticalLabelPosition=bottom;html=1;verticalAlign=top;align=center;strokeColor=none;fillColor=#00BEF2;shape=mxgraph.azure.mobile;pointerEvents=1;dashed=1;" vertex="1" parent="1">
          <mxGeometry x="94.5" y="460" width="35" height="50" as="geometry" />
        </mxCell>
        <mxCell id="l1ZClt1DXuYaa-gGNhbf-34" style="edgeStyle=orthogonalEdgeStyle;rounded=0;orthogonalLoop=1;jettySize=auto;html=1;exitX=0.16;exitY=0.55;exitDx=0;exitDy=0;exitPerimeter=0;entryX=1;entryY=0.5;entryDx=0;entryDy=0;entryPerimeter=0;startArrow=classic;startFill=1;strokeWidth=1;" edge="1" parent="1" source="l1ZClt1DXuYaa-gGNhbf-31" target="l1ZClt1DXuYaa-gGNhbf-30">
          <mxGeometry relative="1" as="geometry" />
        </mxCell>
        <mxCell id="l1ZClt1DXuYaa-gGNhbf-40" style="edgeStyle=orthogonalEdgeStyle;rounded=0;orthogonalLoop=1;jettySize=auto;html=1;exitX=0.875;exitY=0.5;exitDx=0;exitDy=0;exitPerimeter=0;entryX=0;entryY=0.5;entryDx=0;entryDy=0;startArrow=classic;startFill=1;strokeWidth=1;" edge="1" parent="1" source="l1ZClt1DXuYaa-gGNhbf-31" target="l1ZClt1DXuYaa-gGNhbf-35">
          <mxGeometry relative="1" as="geometry" />
        </mxCell>
        <mxCell id="l1ZClt1DXuYaa-gGNhbf-43" style="edgeStyle=orthogonalEdgeStyle;rounded=0;orthogonalLoop=1;jettySize=auto;html=1;exitX=0.16;exitY=0.55;exitDx=0;exitDy=0;exitPerimeter=0;startArrow=classic;startFill=1;strokeWidth=1;" edge="1" parent="1" source="l1ZClt1DXuYaa-gGNhbf-31" target="l1ZClt1DXuYaa-gGNhbf-38">
          <mxGeometry relative="1" as="geometry">
            <mxPoint x="221" y="620" as="targetPoint" />
          </mxGeometry>
        </mxCell>
        <mxCell id="l1ZClt1DXuYaa-gGNhbf-31" value="" style="ellipse;shape=cloud;whiteSpace=wrap;html=1;" vertex="1" parent="1">
          <mxGeometry x="200" y="495" width="130" height="80" as="geometry" />
        </mxCell>
        <mxCell id="l1ZClt1DXuYaa-gGNhbf-41" style="edgeStyle=orthogonalEdgeStyle;rounded=0;orthogonalLoop=1;jettySize=auto;html=1;exitX=1;exitY=0.5;exitDx=0;exitDy=0;entryX=0;entryY=0.5;entryDx=0;entryDy=0;startArrow=classic;startFill=1;strokeWidth=1;" edge="1" parent="1" source="l1ZClt1DXuYaa-gGNhbf-35" target="l1ZClt1DXuYaa-gGNhbf-11">
          <mxGeometry relative="1" as="geometry" />
        </mxCell>
        <mxCell id="l1ZClt1DXuYaa-gGNhbf-35" value="Cloud Gateway" style="aspect=fixed;perimeter=ellipsePerimeter;html=1;align=center;shadow=0;dashed=0;spacingTop=3;image;image=img/lib/active_directory/web_server.svg;" vertex="1" parent="1">
          <mxGeometry x="415" y="495" width="64" height="80" as="geometry" />
        </mxCell>
        <mxCell id="l1ZClt1DXuYaa-gGNhbf-38" value="" style="sketch=0;pointerEvents=1;shadow=0;dashed=0;html=1;strokeColor=none;fillColor=#434445;aspect=fixed;labelPosition=center;verticalLabelPosition=bottom;verticalAlign=top;align=center;outlineConnect=0;shape=mxgraph.vvd.web_browser;" vertex="1" parent="1">
          <mxGeometry x="87.31" y="570" width="63.38" height="45" as="geometry" />
        </mxCell>
        <mxCell id="l1ZClt1DXuYaa-gGNhbf-39" value="" style="verticalLabelPosition=bottom;html=1;verticalAlign=top;align=center;strokeColor=none;fillColor=#00BEF2;shape=mxgraph.azure.user;dashed=1;" vertex="1" parent="1">
          <mxGeometry x="20" y="500" width="47.5" height="50" as="geometry" />
        </mxCell>
        <mxCell id="l1ZClt1DXuYaa-gGNhbf-44" style="edgeStyle=orthogonalEdgeStyle;rounded=0;orthogonalLoop=1;jettySize=auto;html=1;exitX=0;exitY=0.5;exitDx=0;exitDy=0;entryX=1;entryY=0.75;entryDx=0;entryDy=0;startArrow=none;startFill=0;dashed=1;" edge="1" parent="1" source="l1ZClt1DXuYaa-gGNhbf-45" target="l1ZClt1DXuYaa-gGNhbf-35">
          <mxGeometry relative="1" as="geometry">
            <mxPoint x="697" y="530" as="sourcePoint" />
            <mxPoint x="697" y="620" as="targetPoint" />
          </mxGeometry>
        </mxCell>
        <mxCell id="l1ZClt1DXuYaa-gGNhbf-45" value="no data storage&lt;br&gt;no services&lt;br&gt;only used to find the available nodes" style="rounded=1;whiteSpace=wrap;html=1;dashed=1;" vertex="1" parent="1">
          <mxGeometry x="550" y="520" width="255" height="70" as="geometry" />
        </mxCell>
        <mxCell id="l1ZClt1DXuYaa-gGNhbf-46" value="&amp;nbsp;- emails&amp;nbsp;messages&amp;nbsp;are stored encrypted&lt;br&gt;- emails are only decrypted at the client side - moble and browser" style="rounded=1;whiteSpace=wrap;html=1;dashed=1;" vertex="1" parent="1">
          <mxGeometry x="550" y="40" width="260" height="70" as="geometry" />
        </mxCell>
        <mxCell id="l1ZClt1DXuYaa-gGNhbf-47" style="edgeStyle=orthogonalEdgeStyle;rounded=0;orthogonalLoop=1;jettySize=auto;html=1;exitX=0.25;exitY=1;exitDx=0;exitDy=0;entryX=0.5;entryY=0;entryDx=0;entryDy=0;startArrow=none;startFill=0;dashed=1;" edge="1" parent="1" source="l1ZClt1DXuYaa-gGNhbf-46" target="l1ZClt1DXuYaa-gGNhbf-9">
          <mxGeometry relative="1" as="geometry">
            <mxPoint x="779.4" y="289.1" as="sourcePoint" />
            <mxPoint x="650.0216701119972" y="289.9885438199982" as="targetPoint" />
          </mxGeometry>
        </mxCell>
        <mxCell id="l1ZClt1DXuYaa-gGNhbf-48" value="&amp;nbsp;Apps can access nodes directly once the node is discovered&lt;br&gt;&lt;br&gt;when a node is offline one of the backs up are used" style="rounded=1;whiteSpace=wrap;html=1;dashed=1;" vertex="1" parent="1">
          <mxGeometry x="190" y="380" width="190" height="80" as="geometry" />
        </mxCell>
      </root>
    </mxGraphModel>
  </diagram>
</mxfile>
